<mxfile host="app.diagrams.net" modified="2022-03-26T01:29:08.215Z" agent="5.0 (Macintosh; Intel Mac OS X 10_15_7) AppleWebKit/537.36 (KHTML, like Gecko) Chrome/99.0.4844.83 Safari/537.36" etag="gIybRWpo3GiiaNnD2OLS" version="17.2.3" type="github">
  <diagram id="dWQyzjQPPri8PSFMrYrO" name="第 1 页">
    <mxGraphModel dx="946" dy="536" grid="1" gridSize="10" guides="1" tooltips="1" connect="1" arrows="1" fold="1" page="1" pageScale="1" pageWidth="850" pageHeight="1100" math="0" shadow="0">
      <root>
        <mxCell id="0" />
        <mxCell id="1" parent="0" />
        <mxCell id="IUdjdFopHAUacsQd-ZnP-6" style="edgeStyle=orthogonalEdgeStyle;rounded=0;orthogonalLoop=1;jettySize=auto;html=1;exitX=0;exitY=0;exitDx=0;exitDy=25.5;exitPerimeter=0;entryX=0;entryY=0;entryDx=120;entryDy=37;entryPerimeter=0;" edge="1" parent="1" source="IUdjdFopHAUacsQd-ZnP-1" target="IUdjdFopHAUacsQd-ZnP-3">
          <mxGeometry relative="1" as="geometry" />
        </mxCell>
        <mxCell id="IUdjdFopHAUacsQd-ZnP-7" style="edgeStyle=orthogonalEdgeStyle;rounded=0;orthogonalLoop=1;jettySize=auto;html=1;exitX=0;exitY=0;exitDx=0;exitDy=25.5;exitPerimeter=0;entryX=0;entryY=0;entryDx=120;entryDy=37;entryPerimeter=0;" edge="1" parent="1" source="IUdjdFopHAUacsQd-ZnP-1" target="IUdjdFopHAUacsQd-ZnP-2">
          <mxGeometry relative="1" as="geometry" />
        </mxCell>
        <mxCell id="IUdjdFopHAUacsQd-ZnP-11" style="edgeStyle=orthogonalEdgeStyle;rounded=0;orthogonalLoop=1;jettySize=auto;html=1;exitX=0;exitY=0;exitDx=120;exitDy=25.5;exitPerimeter=0;entryX=0;entryY=0;entryDx=0;entryDy=25.5;entryPerimeter=0;" edge="1" parent="1" source="IUdjdFopHAUacsQd-ZnP-1" target="IUdjdFopHAUacsQd-ZnP-5">
          <mxGeometry relative="1" as="geometry" />
        </mxCell>
        <mxCell id="IUdjdFopHAUacsQd-ZnP-12" style="edgeStyle=orthogonalEdgeStyle;rounded=0;orthogonalLoop=1;jettySize=auto;html=1;exitX=0.5;exitY=1;exitDx=0;exitDy=0;exitPerimeter=0;entryX=0;entryY=0;entryDx=80;entryDy=14;entryPerimeter=0;" edge="1" parent="1" source="IUdjdFopHAUacsQd-ZnP-1" target="IUdjdFopHAUacsQd-ZnP-10">
          <mxGeometry relative="1" as="geometry" />
        </mxCell>
        <mxCell id="IUdjdFopHAUacsQd-ZnP-1" value="data_server" style="shape=folder;fontStyle=1;spacingTop=10;tabWidth=40;tabHeight=14;tabPosition=left;html=1;" vertex="1" parent="1">
          <mxGeometry x="305" y="160" width="120" height="60" as="geometry" />
        </mxCell>
        <mxCell id="IUdjdFopHAUacsQd-ZnP-2" value="redis" style="shape=folder;fontStyle=1;spacingTop=10;tabWidth=40;tabHeight=14;tabPosition=left;html=1;" vertex="1" parent="1">
          <mxGeometry x="140" y="250" width="120" height="60" as="geometry" />
        </mxCell>
        <mxCell id="IUdjdFopHAUacsQd-ZnP-3" value="oss" style="shape=folder;fontStyle=1;spacingTop=10;tabWidth=40;tabHeight=14;tabPosition=left;html=1;" vertex="1" parent="1">
          <mxGeometry x="140" y="160" width="120" height="60" as="geometry" />
        </mxCell>
        <mxCell id="IUdjdFopHAUacsQd-ZnP-4" value="delta" style="shape=folder;fontStyle=1;spacingTop=10;tabWidth=40;tabHeight=14;tabPosition=left;html=1;" vertex="1" parent="1">
          <mxGeometry x="490" y="250" width="120" height="60" as="geometry" />
        </mxCell>
        <mxCell id="IUdjdFopHAUacsQd-ZnP-9" style="edgeStyle=orthogonalEdgeStyle;rounded=0;orthogonalLoop=1;jettySize=auto;html=1;exitX=0.5;exitY=1;exitDx=0;exitDy=0;exitPerimeter=0;entryX=0;entryY=0;entryDx=80;entryDy=14;entryPerimeter=0;" edge="1" parent="1" source="IUdjdFopHAUacsQd-ZnP-5" target="IUdjdFopHAUacsQd-ZnP-4">
          <mxGeometry relative="1" as="geometry" />
        </mxCell>
        <mxCell id="IUdjdFopHAUacsQd-ZnP-5" value="pyspark" style="shape=folder;fontStyle=1;spacingTop=10;tabWidth=40;tabHeight=14;tabPosition=left;html=1;" vertex="1" parent="1">
          <mxGeometry x="490" y="160" width="120" height="60" as="geometry" />
        </mxCell>
        <mxCell id="IUdjdFopHAUacsQd-ZnP-13" style="edgeStyle=orthogonalEdgeStyle;rounded=0;orthogonalLoop=1;jettySize=auto;html=1;exitX=0;exitY=0;exitDx=120;exitDy=37;exitPerimeter=0;entryX=0;entryY=0;entryDx=0;entryDy=48.5;entryPerimeter=0;" edge="1" parent="1" source="IUdjdFopHAUacsQd-ZnP-10" target="IUdjdFopHAUacsQd-ZnP-5">
          <mxGeometry relative="1" as="geometry" />
        </mxCell>
        <mxCell id="IUdjdFopHAUacsQd-ZnP-10" value="TagEngine" style="shape=folder;fontStyle=1;spacingTop=10;tabWidth=40;tabHeight=14;tabPosition=left;html=1;" vertex="1" parent="1">
          <mxGeometry x="305" y="250" width="120" height="60" as="geometry" />
        </mxCell>
      </root>
    </mxGraphModel>
  </diagram>
</mxfile>
